<svg width="35" height="36" viewBox="0 0 35 36" fill="none" xmlns="http://www.w3.org/2000/svg">
<path d="M26.7105 2.10221H25.7895V1.17605C25.7895 0.930411 25.6924 0.694837 25.5197 0.521146C25.347 0.347456 25.1127 0.249878 24.8684 0.249878C24.6241 0.249878 24.3899 0.347456 24.2171 0.521146C24.0444 0.694837 23.9474 0.930411 23.9474 1.17605V2.10221H11.0526V1.17605C11.0526 0.930411 10.9556 0.694837 10.7829 0.521146C10.6101 0.347456 10.3759 0.249878 10.1316 0.249878C9.8873 0.249878 9.65303 0.347456 9.4803 0.521146C9.30757 0.694837 9.21053 0.930411 9.21053 1.17605V2.10221H8.28947C6.09097 2.10221 3.98251 2.98042 2.42793 4.54363C0.873353 6.10684 0 8.22701 0 10.4377V27.1087C0.00243789 29.3187 0.876573 31.4375 2.43062 33.0001C3.98467 34.5628 6.09172 35.4418 8.28947 35.4443H26.7105C28.9083 35.4418 31.0153 34.5628 32.5694 33.0001C34.1234 31.4375 34.9976 29.3187 35 27.1087V10.4377C35 8.22701 34.1266 6.10684 32.5721 4.54363C31.0175 2.98042 28.909 2.10221 26.7105 2.10221ZM8.28947 3.95455H9.21053V6.73305C9.21053 6.97869 9.30757 7.21426 9.4803 7.38795C9.65303 7.56164 9.8873 7.65922 10.1316 7.65922C10.3759 7.65922 10.6101 7.56164 10.7829 7.38795C10.9556 7.21426 11.0526 6.97869 11.0526 6.73305V3.95455H23.9474V6.73305C23.9474 6.97869 24.0444 7.21426 24.2171 7.38795C24.3899 7.56164 24.6241 7.65922 24.8684 7.65922C25.1127 7.65922 25.347 7.56164 25.5197 7.38795C25.6924 7.21426 25.7895 6.97869 25.7895 6.73305V3.95455H26.7105C28.4205 3.95455 30.0604 4.6376 31.2695 5.85343C32.4786 7.06926 33.1579 8.71828 33.1579 10.4377V11.3639H1.84211V10.4377C1.84211 8.71828 2.52138 7.06926 3.7305 5.85343C4.93961 4.6376 6.57953 3.95455 8.28947 3.95455ZM26.7105 33.5919H8.28947C6.57953 33.5919 4.93961 32.9089 3.7305 31.693C2.52138 30.4772 1.84211 28.8282 1.84211 27.1087V13.2162H33.1579V27.1087C33.1579 28.8282 32.4786 30.4772 31.2695 31.693C30.0604 32.9089 28.4205 33.5919 26.7105 33.5919ZM26.7105 19.6994C26.7105 20.0658 26.6025 20.4239 26.4001 20.7285C26.1977 21.0331 25.91 21.2705 25.5734 21.4107C25.2368 21.5509 24.8664 21.5876 24.509 21.5161C24.1517 21.4447 23.8235 21.2683 23.5659 21.0092C23.3082 20.7502 23.1328 20.4201 23.0617 20.0608C22.9906 19.7015 23.0271 19.329 23.1665 18.9905C23.306 18.6521 23.5421 18.3628 23.845 18.1592C24.1479 17.9557 24.5041 17.8471 24.8684 17.8471C25.357 17.8471 25.8255 18.0422 26.171 18.3896C26.5164 18.737 26.7105 19.2081 26.7105 19.6994ZM19.3421 19.6994C19.3421 20.0658 19.2341 20.4239 19.0317 20.7285C18.8292 21.0331 18.5415 21.2705 18.2049 21.4107C17.8683 21.5509 17.498 21.5876 17.1406 21.5161C16.7833 21.4447 16.4551 21.2683 16.1974 21.0092C15.9398 20.7502 15.7644 20.4201 15.6933 20.0608C15.6222 19.7015 15.6587 19.329 15.7981 18.9905C15.9375 18.6521 16.1736 18.3628 16.4766 18.1592C16.7795 17.9557 17.1357 17.8471 17.5 17.8471C17.9886 17.8471 18.4571 18.0422 18.8026 18.3896C19.148 18.737 19.3421 19.2081 19.3421 19.6994ZM11.9737 19.6994C11.9737 20.0658 11.8656 20.4239 11.6632 20.7285C11.4608 21.0331 11.1731 21.2705 10.8365 21.4107C10.4999 21.5509 10.1295 21.5876 9.7722 21.5161C9.41487 21.4447 9.08664 21.2683 8.82901 21.0092C8.57139 20.7502 8.39595 20.4201 8.32487 20.0608C8.25379 19.7015 8.29027 19.329 8.4297 18.9905C8.56912 18.6521 8.80523 18.3628 9.10816 18.1592C9.41109 17.9557 9.76725 17.8471 10.1316 17.8471C10.6201 17.8471 11.0887 18.0422 11.4341 18.3896C11.7796 18.737 11.9737 19.2081 11.9737 19.6994ZM26.7105 27.1087C26.7105 27.4751 26.6025 27.8332 26.4001 28.1379C26.1977 28.4425 25.91 28.6799 25.5734 28.8201C25.2368 28.9603 24.8664 28.997 24.509 28.9255C24.1517 28.854 23.8235 28.6776 23.5659 28.4186C23.3082 28.1595 23.1328 27.8294 23.0617 27.4701C22.9906 27.1108 23.0271 26.7384 23.1665 26.3999C23.306 26.0614 23.5421 25.7721 23.845 25.5686C24.1479 25.365 24.5041 25.2564 24.8684 25.2564C25.357 25.2564 25.8255 25.4516 26.171 25.7989C26.5164 26.1463 26.7105 26.6175 26.7105 27.1087ZM19.3421 27.1087C19.3421 27.4751 19.2341 27.8332 19.0317 28.1379C18.8292 28.4425 18.5415 28.6799 18.2049 28.8201C17.8683 28.9603 17.498 28.997 17.1406 28.9255C16.7833 28.854 16.4551 28.6776 16.1974 28.4186C15.9398 28.1595 15.7644 27.8294 15.6933 27.4701C15.6222 27.1108 15.6587 26.7384 15.7981 26.3999C15.9375 26.0614 16.1736 25.7721 16.4766 25.5686C16.7795 25.365 17.1357 25.2564 17.5 25.2564C17.9886 25.2564 18.4571 25.4516 18.8026 25.7989C19.148 26.1463 19.3421 26.6175 19.3421 27.1087ZM11.9737 27.1087C11.9737 27.4751 11.8656 27.8332 11.6632 28.1379C11.4608 28.4425 11.1731 28.6799 10.8365 28.8201C10.4999 28.9603 10.1295 28.997 9.7722 28.9255C9.41487 28.854 9.08664 28.6776 8.82901 28.4186C8.57139 28.1595 8.39595 27.8294 8.32487 27.4701C8.25379 27.1108 8.29027 26.7384 8.4297 26.3999C8.56912 26.0614 8.80523 25.7721 9.10816 25.5686C9.41109 25.365 9.76725 25.2564 10.1316 25.2564C10.6201 25.2564 11.0887 25.4516 11.4341 25.7989C11.7796 26.1463 11.9737 26.6175 11.9737 27.1087Z" fill="white"/>
</svg>
