<svg width="38" height="38" viewBox="0 0 38 38" fill="none" xmlns="http://www.w3.org/2000/svg">
<path d="M26.5 13.6084C26.4834 13.6084 26.4584 13.6084 26.4334 13.6084C22.025 13.1667 17.625 13.0001 13.2667 13.4417L11.5667 13.6084C11.2167 13.6417 10.9084 13.3917 10.8751 13.0417C10.8417 12.6917 11.0917 12.3917 11.4334 12.3584L13.1334 12.1917C17.5667 11.7417 22.0584 11.9167 26.5584 12.3584C26.9 12.3917 27.15 12.7001 27.1167 13.0417C27.0917 13.3667 26.8167 13.6084 26.5 13.6084Z" fill="#FF5A5A"/>
<path d="M16.0834 12.7665C16.05 12.7665 16.0167 12.7665 15.975 12.7582C15.6417 12.6998 15.4084 12.3748 15.4667 12.0415L15.65 10.9498C15.7834 10.1498 15.9667 9.0415 17.9084 9.0415H20.0917C22.0417 9.0415 22.225 10.1915 22.35 10.9582L22.5334 12.0415C22.5917 12.3832 22.3584 12.7082 22.025 12.7582C21.6834 12.8165 21.3584 12.5832 21.3084 12.2498L21.125 11.1665C21.0084 10.4415 20.9834 10.2998 20.1 10.2998H17.9167C17.0334 10.2998 17.0167 10.4165 16.8917 11.1582L16.7 12.2415C16.65 12.5498 16.3834 12.7665 16.0834 12.7665Z" fill="#FF5A5A"/>
<path d="M21.675 26.9581H16.325C13.4167 26.9581 13.3 25.3498 13.2083 24.0498L12.6667 15.6582C12.6417 15.3165 12.9083 15.0165 13.25 14.9915C13.6 14.9748 13.8917 15.2332 13.9167 15.5748L14.4583 23.9665C14.55 25.2331 14.5833 25.7081 16.325 25.7081H21.675C23.425 25.7081 23.4583 25.2331 23.5417 23.9665L24.0833 15.5748C24.1083 15.2332 24.4083 14.9748 24.75 14.9915C25.0917 15.0165 25.3583 15.3082 25.3333 15.6582L24.7917 24.0498C24.7 25.3498 24.5833 26.9581 21.675 26.9581Z" fill="#FF5A5A"/>
<path d="M20.3834 22.375H17.6084C17.2667 22.375 16.9834 22.0917 16.9834 21.75C16.9834 21.4083 17.2667 21.125 17.6084 21.125H20.3834C20.7251 21.125 21.0084 21.4083 21.0084 21.75C21.0084 22.0917 20.7251 22.375 20.3834 22.375Z" fill="#FF5A5A"/>
<path d="M21.0834 19.0415H16.9167C16.5751 19.0415 16.2917 18.7582 16.2917 18.4165C16.2917 18.0748 16.5751 17.7915 16.9167 17.7915H21.0834C21.4251 17.7915 21.7084 18.0748 21.7084 18.4165C21.7084 18.7582 21.4251 19.0415 21.0834 19.0415Z" fill="#FF5A5A"/>
<rect x="0.5" y="0.5" width="37" height="37" rx="18.5" stroke="#FF5A5A" stroke-opacity="0.99"/>
</svg>
