<svg width="33" height="33" viewBox="0 0 33 33" fill="none" xmlns="http://www.w3.org/2000/svg">
<path d="M16.2763 8.18334L8.13818 16.3667L16.2763 24.5501L24.4145 16.3667L16.2763 8.18334Z" fill="#9F51DD"/>
<path d="M16.2764 30.6876C15.9981 30.6881 15.7224 30.6333 15.4652 30.5264C15.208 30.4194 14.9744 30.2623 14.7778 30.0643L2.65455 17.8737C2.2576 17.4738 2.03467 16.9318 2.03467 16.3667C2.03467 15.8017 2.2576 15.2597 2.65455 14.8598L14.7778 2.66922C15.1755 2.27007 15.7145 2.0459 16.2764 2.0459C16.8384 2.0459 17.3773 2.27007 17.7751 2.66922L29.8983 14.8598C30.2952 15.2597 30.5182 15.8017 30.5182 16.3667C30.5182 16.9318 30.2952 17.4738 29.8983 17.8737L17.7751 30.0643C17.5784 30.2623 17.3448 30.4194 17.0876 30.5264C16.8304 30.6333 16.5547 30.6881 16.2764 30.6876V30.6876ZM16.2764 4.09088C16.2539 4.09092 16.2323 4.09988 16.2163 4.11584L4.09318 16.3063C4.07729 16.3224 4.06837 16.3441 4.06837 16.3667C4.06837 16.3894 4.07729 16.4111 4.09318 16.4272L16.2163 28.6177C16.2323 28.6335 16.2539 28.6424 16.2764 28.6424C16.2989 28.6424 16.3205 28.6335 16.3365 28.6177L28.4597 16.4272C28.4756 16.4111 28.4845 16.3894 28.4845 16.3667C28.4845 16.3441 28.4756 16.3224 28.4597 16.3063L16.3365 4.11584C16.3206 4.09988 16.2989 4.09092 16.2764 4.09088V4.09088Z" fill="#9F51DD"/>
</svg>
