<svg width="37" height="37" viewBox="0 0 37 37" fill="white" xmlns="http://www.w3.org/2000/svg">
<path d="M35.2905 2.16645H28.1439V1.09068C28.1439 0.488442 27.6554 0 27.0532 0C26.451 0 25.9625 0.488442 25.9625 1.09068V2.16645H19.5906V1.09068C19.5906 0.488442 19.1021 0 18.4999 0C17.8977 0 17.4092 0.488442 17.4092 1.09068V2.16645H11.3082V1.09068C11.3082 0.488442 10.8197 0 10.2175 0C9.61524 0 9.12679 0.488442 9.12679 1.09068V2.16645H1.70945C1.10722 2.16645 0.618774 2.65489 0.618774 3.25713V27.9014C0.618774 28.5036 1.10722 28.9921 1.70945 28.9921H8.40368C9.47636 33.5755 13.5944 37 18.4999 37C23.4054 37 27.5235 33.5753 28.5961 28.9921H35.2904C35.8926 28.9921 36.381 28.5036 36.381 27.9014V3.25713C36.3812 2.65489 35.893 2.16645 35.2905 2.16645ZM9.12679 4.34781V5.33342C9.12679 5.93566 9.61524 6.4241 10.2175 6.4241C10.8197 6.4241 11.3082 5.93566 11.3082 5.33342V4.34781H17.4092V5.33342C17.4092 5.93566 17.8977 6.4241 18.4999 6.4241C19.1021 6.4241 19.5906 5.93566 19.5906 5.33342V4.34781H25.9625V5.33342C25.9625 5.93566 26.451 6.4241 27.0532 6.4241C27.6554 6.4241 28.1439 5.93566 28.1439 5.33342V4.34781H34.1999V8.80796H2.80013V4.34781H9.12679ZM18.4999 34.8186C13.9841 34.8186 10.3102 31.1447 10.3102 26.6289C10.3102 22.1131 13.9841 18.4392 18.4999 18.4392C23.0157 18.4392 26.6896 22.113 26.6896 26.6289C26.6896 31.1449 23.0159 34.8186 18.4999 34.8186ZM28.8664 26.8107C28.8675 26.75 28.871 26.6898 28.871 26.6289C28.871 20.9103 24.2185 16.2578 18.4999 16.2578C12.7813 16.2578 8.12882 20.9103 8.12882 26.6289C8.12882 26.6898 8.13246 26.75 8.13337 26.8107H2.79995V10.9895H34.1997V26.8107H28.8664Z" fill="white"/>
<path d="M19.5906 26.9041V21.6278C19.5906 21.0256 19.1022 20.5371 18.4999 20.5371C17.8977 20.5371 17.4092 21.0256 17.4092 21.6278V27.356C17.4092 27.6452 17.5241 27.9226 17.7286 28.1273L20.2354 30.6342C20.4484 30.8471 20.7274 30.9536 21.0067 30.9536C21.2857 30.9536 21.5649 30.8471 21.778 30.6342C22.2039 30.2083 22.2039 29.5178 21.778 29.0918L19.5906 26.9041Z" fill="white"/>
</svg>
